<?xml version="1.0" standalone="no"?>
<!DOCTYPE svg PUBLIC "-//W3C//DTD SVG 20010904//EN"
 "http://www.w3.org/TR/2001/REC-SVG-20010904/DTD/svg10.dtd">
<svg version="1.0" xmlns="http://www.w3.org/2000/svg"
 width="870.000000pt" height="220.000000pt" viewBox="0 0 870.000000 220.000000"
 preserveAspectRatio="xMidYMid meet">

<g transform="translate(0.000000,220.000000) scale(0.100000,-0.100000)"
fill="#000000" stroke="none">
<path d="M0 1100 l0 -1100 30 0 30 0 0 258 c0 288 3 303 71 409 45 69 133 134
215 159 71 21 1257 21 1328 -1 90 -27 200 -114 238 -189 43 -85 48 -120 48
-383 l0 -253 3370 0 3370 0 0 1100 0 1100 -4350 0 -4350 0 0 -1100z"/>
</g>
</svg>
